<svg xmlns="http://www.w3.org/2000/svg" viewBox="0 0 200 200" fill="none">
  <defs>
    <linearGradient id="lavishGold" x1="0%" y1="0%" x2="100%" y2="100%">
      <stop offset="0%" stop-color="#EBC494" />
      <stop offset="50%" stop-color="#C59353" />
      <stop offset="100%" stop-color="#8E5A2A" />
    </linearGradient>
    <filter id="softGlow" x="-20%" y="-20%" width="140%" height="140%">
      <feGaussianBlur stdDeviation="2.5" result="blur" />
      <feComposite in="SourceGraphic" in2="blur" operator="over" />
    </filter>
  </defs>
  
  <path 
    d="M 100 25 
       C 75 35 35 55 25 80 
       C 15 105 20 135 35 155 
       C 50 175 80 165 100 145 
       C 125 120 155 105 155 80 
       C 155 50 120 50 100 85 
       C 80 50 45 50 45 80 
       C 45 105 75 120 100 145 
       C 120 165 150 175 165 155 
       C 180 135 185 105 175 80 
       C 165 55 125 35 100 25 
       Z" 
    stroke="url(#lavishGold)" 
    stroke-width="3" 
    stroke-linecap="round" 
    stroke-linejoin="round" 
    fill="url(#lavishGold)" fill-opacity="0.05"
    filter="url(#softGlow)"
  />
</svg>
